HIERARCHY
ROOT Hips
{
  OFFSET 0 89.5177 0.535
  CHANNELS 6 Xposition Yposition Zposition Zrotation Xrotation Yrotation
  JOINT Spine
  {
    OFFSET 12.0259 -0.162855 1.69034e-005
    CHANNELS 3 Zrotation Xrotation Yrotation
    JOINT Spine1
    {
      OFFSET 15.3169 -0.0121922 0
      CHANNELS 3 Zrotation Xrotation Yrotation
      JOINT Spine2
      {
        OFFSET 15.3176 -0.0121908 0
        CHANNELS 3 Zrotation Xrotation Yrotation
        JOINT Neck
        {
          OFFSET 19.9142 1.56338 0
          CHANNELS 3 Zrotation Xrotation Yrotation
          JOINT Head
          {
            OFFSET 6.92651 0 0
            CHANNELS 3 Zrotation Xrotation Yrotation
            End Site
            {
              OFFSET 20.7666 0 0
            }
          }
          JOINT LeftShoulder
          {
            OFFSET -6.20654 0.708824 7.28219
            CHANNELS 3 Zrotation Xrotation Yrotation
            JOINT LeftArm
            {
              OFFSET 14.108 0 -1.52588e-005
              CHANNELS 3 Zrotation Xrotation Yrotation
              JOINT LeftForeArm
              {
                OFFSET 28.5802 0 0
                CHANNELS 3 Zrotation Xrotation Yrotation
                JOINT LeftHand
                {
                  OFFSET 27.092 0 0
                  CHANNELS 3 Zrotation Xrotation Yrotation
                  End Site
                  {
                    OFFSET 9.55928 -0.186424 0.145352
                  }
                }
              }
            }
          }
          JOINT RightShoulder
          {
            OFFSET -6.20654 0.708866 -7.28218
            CHANNELS 3 Zrotation Xrotation Yrotation
            JOINT RightArm
            {
              OFFSET 14.108 0 1.52588e-005
              CHANNELS 3 Zrotation Xrotation Yrotation
              JOINT RightForeArm
              {
                OFFSET 28.5802 0 0
                CHANNELS 3 Zrotation Xrotation Yrotation
                JOINT RightHand
                {
                  OFFSET 27.092 0 0
                  CHANNELS 3 Zrotation Xrotation Yrotation
                  End Site
                  {
                    OFFSET 9.55929 -0.186417 -0.145354
                  }
                }
              }
            }
          }
        }
      }
    }
  }
  JOINT LeftUpLeg
  {
    OFFSET 0.005 -0.535 8.837
    CHANNELS 3 Zrotation Xrotation Yrotation
    JOINT LeftLeg
    {
      OFFSET 39.9035 0 0
      CHANNELS 3 Zrotation Xrotation Yrotation
      JOINT LeftFoot
      {
        OFFSET 39.6689 0 0
        CHANNELS 3 Zrotation Xrotation Yrotation
        JOINT LeftToe
        {
          OFFSET 10.1624 13.6296 0
          CHANNELS 3 Zrotation Xrotation Yrotation
          End Site
          {
            OFFSET 8.38147 0 0
          }
        }
      }
    }
  }
  JOINT RightUpLeg
  {
    OFFSET 0.005 -0.535 -8.837
    CHANNELS 3 Zrotation Xrotation Yrotation
    JOINT RightLeg
    {
      OFFSET 39.9035 0 0
      CHANNELS 3 Zrotation Xrotation Yrotation
      JOINT RightFoot
      {
        OFFSET 39.6689 0 0
        CHANNELS 3 Zrotation Xrotation Yrotation
        JOINT RightToe
        {
          OFFSET 10.1624 13.6296 0
          CHANNELS 3 Zrotation Xrotation Yrotation
          End Site
          {
            OFFSET 8.38147 0 0
          }
        }
      }
    }
  }
}
MOTION
Frames:	19
Frame Time:	0.0333333
11.8319 87.9819 75.1541 98.7561 48.4482 -14.3871 0.0973761 -0.512058 0.981637 0.203522 -1.0219 1.96443 0.203521 -1.0219 1.96442 -8.30828e-012 -9.0191e-006 -5.27751e-005 -2.64217 -24.2462 0.836927 179.512 2.18494 -77.4088 -16.471 10.6043 62.8231 -79.1628 -4.41985e-015 -6.36111e-015 -44.1916 -38.9013 -42.1303 -177.671 4.84935 64.3083 15.8702 3.36648 -56.3638 -3.71733 3.18055e-015 -4.77083e-015 -31.008 34.2492 24.3053 -37.1765 7.83063 -158.658 -74.7374 0 3.18055e-015 -2.80825 20.3392 -40.6365 90 1.78906e-015 -1.88845e-015 -34.6733 -16.5487 177.007 -46.8527 0 -3.18056e-015 15.2017 -4.31677 8.47897 90 -7.95139e-016 6.36111e-015 
10.0733 88.8001 76.8817 97.964 50.1774 -12.0359 -0.0468722 -0.79663 0.432192 -0.0877439 -1.59312 0.864028 -0.087744 -1.59312 0.864019 -8.30748e-012 -9.0191e-006 -5.27751e-005 -1.11383 -24.388 1.19444 179.626 1.67173 -77.3942 -13.2455 10.822 65.1986 -77.0199 -7.95139e-016 -0 -47.5713 -36.1004 -44.4465 -178.05 4.09298 64.5006 19.1058 10.0233 -58.2296 -2.86815e-006 0 1.59028e-015 -37.0434 29.7306 33.478 -38.3887 7.08704 -160.567 -75.7176 3.18055e-015 1.59028e-015 -7.48205 19.0028 -36.7709 90 4.37326e-015 2.5842e-015 -32.1563 -17.9654 174.601 -46.2562 3.18056e-015 3.18056e-015 16.9092 -4.62148 9.1342 90 -3.97569e-016 6.36111e-015 
8.68536 90.4788 78.9279 96.8808 51.0658 -10.492 -0.0674214 -0.625076 0.0828704 -0.133948 -1.24978 0.165191 -0.133948 -1.24978 0.165181 -8.30828e-012 -9.0191e-006 -5.27751e-005 -0.161118 -25.7788 1.31915 179.503 2.2275 -77.4209 -11.1134 12.1133 66.0022 -74.9574 1.59028e-015 -3.18055e-015 -46.8799 -36.6299 -46.7862 -177.86 4.74504 65.6925 21.407 12.6798 -62.6495 -1.43623 -3.18055e-015 -0 -39.985 26.9479 35.7028 -38.8648 7.18827 -162.126 -74.7815 3.18055e-015 -0 -4.13846 15.9188 -30.2736 90 -6.36111e-015 -0 -27.4017 -18.1835 174.34 -41.6846 -9.54167e-015 -0 14.8897 -4.64102 9.16072 90 -1.59028e-015 -6.36111e-015 
7.50285 92.467 81.1804 96.6821 51.042 -10.2051 -0.101588 -0.180639 -0.129211 -0.203583 -0.360579 -0.258572 -0.203583 -0.360579 -0.258581 -8.30748e-012 -9.0191e-006 -5.27751e-005 0.0799834 -27.7299 1.50361 179.406 2.59643 -77.1044 -9.81379 13.5375 65.2151 -73.316 -1.59028e-015 -9.54166e-015 -41.4224 -37.5713 -43.7383 -177.487 5.93962 67.0179 17.3709 10.9611 -65.653 -7.89555 6.36111e-015 -1.59028e-015 -38.9766 29.7643 33.7349 -38.9657 8.4181 -162.682 -70.4615 0 4.77083e-015 -1.9672 12.813 -24.1433 90 -1.59028e-015 6.36111e-015 -21.4679 -15.2374 176.356 -33.7007 -3.18056e-015 -0 8.31685 -3.03519 5.92973 90 3.97569e-016 -0 
6.88527 93.935 82.9052 99.34 49.4554 -11.0481 -0.577443 0.378295 -0.482095 -1.15172 0.761883 -0.960207 -1.15172 0.761883 -0.960216 -8.30828e-012 -9.0191e-006 -5.27751e-005 0.295634 -28.922 1.36008 179.453 2.21579 -76.1249 -7.93513 15.1257 63.382 -72.0119 1.59028e-015 -6.36111e-015 -35.3559 -37.7886 -37.2803 -177.478 6.34568 68.2769 8.91051 6.93397 -65.6375 -15.3553 0 -3.34207e-015 -38.0566 36.8669 33.0925 -40.7829 10.993 -163.039 -64.0706 0 -4.77083e-015 -0.871891 10.8783 -20.5225 90 -6.36111e-015 -3.18055e-015 -20.0623 -19.806 173.55 -27.9946 -3.18056e-015 -0 10.5176 -7.53027 15.0319 90 0 -0 
6.10774 94.8498 84.8612 100.087 48.3385 -10.3967 -0.816623 0.769911 -0.780492 -1.6229 1.55126 -1.54996 -1.6229 1.55126 -1.54997 -8.30669e-012 -9.0191e-006 -5.27751e-005 0.735889 -29.4126 1.20829 179.626 1.41366 -75.1892 -5.44931 16.5737 61.3879 -71.3527 3.18055e-015 3.18055e-015 -31.2448 -39.0339 -32.4234 -177.844 5.89367 69.8621 2.27345 4.14554 -65.1605 -21.9188 -1.27222e-014 -3.18055e-015 -38.6152 43.4203 33.1217 -40.411 13.2044 -162.888 -56.4695 0 -6.36111e-015 1.74217 10.4322 -19.9816 90 -1.59028e-015 -3.18055e-015 -17.2751 -21.8095 172.059 -22.2776 0 -0 10.4759 -9.71951 19.7126 90 -1.59028e-015 1.27222e-014 
5.50096 95.0125 86.6612 100.805 47.2769 -10.2235 -1.01757 1.05394 -1.00227 -2.01707 2.12582 -1.98599 -2.01707 2.12582 -1.986 -8.30828e-012 -9.0191e-006 -5.27751e-005 1.07529 -29.4422 1.37856 179.835 0.611478 -74.8718 -2.54136 17.6296 59.5634 -71.3082 1.59028e-015 -6.36111e-015 -30.4691 -40.6275 -31.7055 -178.05 5.66913 70.9847 -4.75741 1.83971 -63.8028 -29.5917 -6.36111e-015 -3.18055e-015 -41.0896 48.4146 35.896 -39.8321 13.8344 -162.439 -48.5973 0 3.97569e-015 4.16654 10.2615 -19.9626 90 6.36111e-015 -6.36111e-015 -15.5217 -22.4843 171.228 -18.9271 0 -1.59028e-015 10.9986 -10.8337 22.2222 90 1.59028e-015 -1.27222e-014 
4.78223 94.8413 88.6011 100.426 47.0636 -10.932 -1.02892 1.14784 -0.950952 -2.03926 2.31288 -1.88152 -2.03925 2.31288 -1.88153 -8.30669e-012 -9.0191e-006 -5.27751e-005 1.43982 -29.3479 2.10206 179.929 0.263822 -74.9898 0.826779 18.2799 57.6136 -71.7779 3.18055e-015 1.59028e-014 -31.6824 -42.0012 -34.1223 -178.001 5.95077 71.3977 -10.1829 1.37986 -61.9806 -37.2378 -1.27222e-014 -0 -42.6541 50.8825 38.7505 -37.8994 12.173 -160.964 -40.6342 0 1.19271e-015 7.17748 10.0906 -19.941 90 2.38542e-015 9.54166e-015 -10.3113 -12.0201 175.628 -14.3109 3.18056e-015 1.59028e-015 2.97845 -3.87791 7.66313 90 1.98785e-015 3.18055e-015 
4.68431 93.8945 90.3931 101.808 46.7769 -12.0019 -1.20302 1.18952 -1.06634 -2.38446 2.40144 -2.10796 -2.38446 2.40144 -2.10797 -8.30828e-012 -9.0191e-006 -5.27751e-005 1.46913 -29.4623 2.62439 -179.998 -0.00872402 -74.9929 3.72492 17.9864 55.71 -72.0579 0 -6.36111e-015 -33.5754 -42.4697 -36.9846 -177.888 6.40586 71.7132 -13.131 3.04701 -60.2906 -43.7137 -3.18055e-015 3.18055e-015 -42.1286 50.041 38.169 -37.7619 10.0432 -160.816 -35.9803 9.54166e-015 -2.18663e-015 9.7082 8.1164 -16.0863 90 2.78299e-015 3.18055e-015 -12.6986 -21.4225 172.196 -17.6776 3.18056e-015 3.18056e-015 13.4204 -9.66829 19.8441 90 7.95139e-016 -3.18055e-015 
4.49381 93.0976 92.556 101.505 46.6621 -12.6833 -1.18867 1.23551 -0.989613 -2.35664 2.49156 -1.95388 -2.35664 2.49156 -1.95389 -8.30589e-012 -9.0191e-006 -5.27751e-005 1.79317 -29.5227 3.19085 -179.854 -0.548389 -75.0986 5.53218 16.733 54.4642 -71.5508 0 -0 -34.7019 -42.1305 -38.63 -177.946 6.39295 72.1444 -13.1056 5.76999 -59.7121 -48.7069 -3.18055e-015 3.18055e-015 -42.7642 47.9756 37.6485 -38.0815 10.1084 -159.191 -34.3287 -6.36111e-015 -1.49089e-015 8.83141 5.77397 -11.3438 90 -3.97569e-016 -0 -11.0322 -19.4866 173.069 -17.9157 6.36111e-015 -1.59028e-015 13.3694 -8.07615 16.4582 90 2.38542e-015 -3.18055e-015 
4.10391 92.6322 95.5266 98.6823 47.2585 -11.9684 -0.89956 1.24738 -0.81176 -1.78199 2.50769 -1.60422 -1.78199 2.50769 -1.60423 -8.30748e-012 -9.0191e-006 -5.27751e-005 3.22104 -29.7156 4.37575 -179.677 -1.24081 -75.3916 6.34051 15.1417 54.0846 -70.5813 -7.95139e-015 -0 -35.2775 -41.5883 -39.304 -178.101 5.93641 72.2226 -9.84606 8.48125 -60.508 -53.1828 0 3.18055e-015 -45.465 45.0751 38.8594 -37.0333 12.0886 -157.568 -34.5052 3.18055e-015 3.37934e-015 6.07814 3.25759 -6.31766 90 2.98177e-016 -0 -5.67849 -11.5828 175.786 -15.4923 -3.18056e-015 -3.18056e-015 6.30912 -2.35733 4.71125 90 2.38542e-015 -6.36111e-015 
4.31943 92.2932 99.0048 96.8483 47.5798 -10.1074 -0.873693 1.33721 -0.918544 -1.72654 2.68857 -1.81715 -1.72654 2.68857 -1.81716 -8.30748e-012 -9.0191e-006 -5.27751e-005 6.11489 -30.2619 5.95939 -179.597 -1.56966 -75.5836 6.87715 14.3472 54.431 -70.1305 -3.18055e-015 3.18055e-015 -35.3848 -41.5354 -39.2567 -178.079 5.82243 71.7076 -5.71854 9.45707 -61.2676 -58.7855 3.18055e-015 -6.36111e-015 -51.0355 42.2332 43.313 -35.0413 15.2399 -158.965 -35.0745 3.18055e-015 3.37934e-015 5.05439 1.07382 -2.07356 90 6.95746e-016 3.18055e-015 -4.54397 -11.5857 173.016 -17.5138 -1.27222e-014 -6.36111e-015 5.90949 -3.17112 6.30368 90 -1.59028e-015 1.90833e-014 
5.10789 92.1499 102.912 96.2221 48.9128 -8.31681 -1.04789 1.23217 -1.13035 -2.07198 2.48504 -2.23858 -2.07198 2.48504 -2.23859 -8.30748e-012 -9.0191e-006 -5.27751e-005 9.38496 -31.156 7.25706 -179.589 -1.6299 -75.8659 6.6284 14.5249 55.2237 -70.5202 3.18055e-015 -6.36111e-015 -35.4605 -42.0986 -40.257 -177.779 6.42434 70.8829 -1.55148 9.34266 -62.1543 -65.4468 0 1.27222e-014 -58.3406 39.1205 49.5823 -31.5584 16.4419 -163.196 -35.7951 0 -7.95139e-016 10.9712 0.121802 -0.246964 90 -5.96354e-016 -3.18055e-015 -4.8742 -11.5696 169.027 -20.2442 1.27222e-014 6.36111e-015 3.15025 -3.4251 6.73682 90 3.18055e-015 -9.54166e-015 
6.3005 92.0922 106.735 96.8091 51.0874 -7.72391 -1.30961 0.9293 -1.25 -2.59915 1.88717 -2.47875 -2.59915 1.88717 -2.47876 -8.30867e-012 -9.0191e-006 -5.27751e-005 11.6093 -32.4129 7.77145 -179.567 -1.72723 -75.9104 5.31319 14.9821 56.0052 -71.358 3.18055e-015 -3.18055e-015 -36.8869 -43.1582 -42.522 -177.345 7.37914 70.1457 2.63162 8.71991 -63.3417 -72.9215 -6.36111e-015 -0 -63.1787 35.4176 52.8771 -29.2961 15.1207 -167.664 -36.5727 -6.36111e-015 -1.59028e-015 12.5884 -0.679905 1.3137 90 6.95746e-016 -0 -6.52693 -11.0878 165.443 -23.74 -9.54167e-015 -3.18056e-015 -1.8539 -3.04386 5.88417 90 -6.36111e-015 3.18055e-015 
7.59307 92.1638 110.401 96.9152 53.0748 -6.06605 -1.46572 0.670971 -1.50198 -2.91366 1.38037 -2.98644 -2.91366 1.38037 -2.98645 -8.30649e-012 -9.0191e-006 -5.27751e-005 12.5274 -33.6688 7.63337 -179.512 -1.95588 -75.9817 2.96179 15.2219 56.8761 -71.979 4.77083e-015 6.36111e-015 -37.7076 -43.4683 -43.3762 -177.1 7.92683 69.833 6.98801 7.08215 -64.8065 -80.3344 1.59028e-015 3.18055e-015 -66.5234 32.2919 54.793 -26.4742 14.1668 -172.621 -36.6953 -9.54166e-015 -3.18055e-015 14.2148 -1.20329 2.33445 90 -7.45443e-017 -0 -9.29062 -9.38242 161.599 -29.2236 9.54167e-015 -3.18056e-015 -8.06407 -1.69743 3.38815 90 -3.18055e-015 -3.18055e-015 
8.8877 92.1295 113.493 97.8472 54.4849 -5.98997 -1.62457 0.456419 -1.61026 -3.23583 0.958585 -3.20691 -3.23583 0.958585 -3.20692 -8.30688e-012 -9.0191e-006 -5.27751e-005 12.4922 -34.5795 7.62256 -179.551 -1.82486 -76.1758 0.494475 15.1039 57.6305 -73.0532 3.18055e-015 -0 -37.7821 -42.5737 -42.608 -177.095 7.90866 69.7547 11.2455 5.07294 -66.4913 -87.0384 2.38542e-015 -6.36111e-015 -68.7964 29.6365 55.3497 -24.3965 14.1376 -175.967 -36.1046 6.36111e-015 -1.59028e-015 16.946 -1.17489 2.26868 90 1.49089e-016 3.18055e-015 -14.0106 -5.38443 160.264 -38.1424 -3.18056e-015 -6.36111e-015 -13.0279 3.09668 -2.86167 90 9.54166e-015 6.36111e-015 
10.0055 91.9471 116.258 98.2737 55.62 -5.67067 -1.57519 0.189334 -1.71761 -3.14402 0.426181 -3.42921 -3.14402 0.426182 -3.42922 -8.30589e-012 -9.0191e-006 -5.27751e-005 11.5726 -34.9359 7.79574 -179.633 -1.49777 -76.2443 -1.84729 14.4817 58.0163 -74.9652 3.18055e-015 6.36111e-015 -38.8146 -41.969 -43.1482 -177.15 7.6501 69.4943 14.2535 3.7002 -67.7829 -92.3395 1.59028e-015 3.18055e-015 -70.5413 27.605 55.7164 -22.4574 14.4018 -178.602 -35.9209 -3.18055e-015 2.38542e-015 19.8083 -0.886274 1.66495 90 4.96962e-017 -0 -18.1843 -1.22764 160.526 -45.0656 -3.18056e-015 6.36111e-015 -21.4868 7.28807 -9.14116 90 3.18055e-015 -1.27222e-014 
10.7841 92.2917 118.618 98.9144 57.8612 -7.36949 -1.50654 -0.43168 -1.47789 -3.02382 -0.823752 -2.96655 -3.02382 -0.823752 -2.96656 -8.30768e-012 -9.0191e-006 -5.27751e-005 10.8504 -34.6795 7.95146 -179.719 -1.13909 -76.1582 -4.16755 13.8676 58.091 -77.0443 -5.56597e-015 -0 -40.6195 -41.7971 -44.6096 -177.213 7.43934 69.3947 15.9563 2.66901 -68.7347 -95.6896 0 -3.18055e-015 -71.643 26.1741 55.6527 -20.6111 12.8986 -179.504 -34.5648 -6.36111e-015 -3.18055e-015 21.3522 -0.354255 0.621363 90 -2.98177e-016 -3.18055e-015 -19.7373 3.66505 164.038 -49.3876 0 -0 -21.8697 1.85359 -3.32429 90 -6.36111e-015 -3.18055e-015 
11.4391 92.797 121.054 100.452 61.1163 -9.83816 -1.51255 -1.18681 -1.35326 -3.05366 -2.33668 -2.73805 -3.05366 -2.33668 -2.73806 -8.30649e-012 -9.0191e-006 -5.27751e-005 11.0951 -34.8825 8.74614 -179.867 -0.565551 -76.7192 -7.28394 13.2998 58.3626 -78.8045 -3.97569e-015 -1.90833e-014 -42.062 -41.6902 -46.2245 -177.05 7.71423 68.9983 16.8158 1.62799 -68.8791 -98.0167 -2.78299e-015 -6.36111e-015 -72.3276 25.1369 55.5045 -18.2079 10.6263 179.394 -31.8323 6.36111e-015 -7.95139e-016 22.301 0.341282 -0.741995 90 0 -3.18055e-015 -23.2083 6.48054 166.854 -55.9922 0 -6.36111e-015 -12.0146 -4.31724 7.79257 90 -3.18055e-015 -0 
